<svg width="239" height="31" viewBox="0 0 239 31" fill="none" xmlns="http://www.w3.org/2000/svg">
<g id="Group">
<g id="Group_2">
<g id="Group_3">
<path id="Vector" d="M55.6616 -3.8147e-06L58.6537 1.23529L82.7557 28.5765C83.5518 29.4823 82.9204 30.9098 81.7126 30.9098H28.4577L55.6616 -3.8147e-06Z" fill="#2044A0"/>
<path id="Vector_2" d="M26.893 30.8824H37.242L58.7636 6.45098C60.9871 3.95294 59.2028 -1.90735e-06 55.8538 -1.90735e-06C54.7283 -1.90735e-06 53.6851 0.466665 52.944 1.31765L26.893 30.8824Z" fill="#C7DAFF"/>
</g>
<g id="Group_4">
<path id="Vector_3" d="M27.9361 -1.90735e-06L30.9283 1.23529L57.0616 30.8824H0.732193L27.9361 -1.90735e-06Z" fill="#3366FF"/>
<path id="Vector_4" d="M0.704741 30.8824H9.51651L31.0381 6.45098C33.2342 3.95294 31.4498 0 28.1008 0C26.9753 0 25.9322 0.466667 25.191 1.31765L0.183174 29.7294C-0.228591 30.1686 0.100819 30.8824 0.704741 30.8824Z" fill="#C7DAFF"/>
</g>
</g>
<g id="Group 7">
<g id="Group_5">
<path id="Vector_5" d="M116.532 12.7412L111.811 22.5412H108.736L103.96 12.7137L102.56 24.7373H98.5518L100.94 5.35687H104.262L110.246 18.0667L116.175 5.35687H119.552L121.913 24.7373H117.932L116.532 12.7412Z" fill="#28293D"/>
<path id="Vector_6" d="M138.026 24.7373H125.618V5.35687H137.779V8.81569H129.544V13.4275H136.764V16.9412H129.544V21.2784H138.054V24.7373H138.026Z" fill="#28293D"/>
<path id="Vector_7" d="M149.226 8.81569V24.7373H145.328V8.81569H139.975V5.35687H154.579V8.81569H149.226Z" fill="#28293D"/>
<path id="Vector_8" d="M156.171 19.1098H160.069C160.097 20.4824 161.442 21.6353 163.254 21.6353C165.038 21.6353 166.164 20.6745 166.164 19.302C166.164 18.2588 165.34 17.4628 163.72 16.9686L161.36 16.2824C157.105 15.1569 156.364 12.5765 156.364 10.8471C156.364 7.36079 159.356 5.00001 163.062 5.00001C166.74 5.00001 169.54 7.22354 169.54 10.902H165.642C165.642 9.52942 164.681 8.45883 163.007 8.45883C161.469 8.45883 160.344 9.44707 160.344 10.7647C160.344 11.2588 160.481 12.2196 162.513 12.8235L164.681 13.4549C167.618 14.2784 170.171 15.7882 170.171 19.1098C170.171 22.9255 166.877 25.0667 163.226 25.0667C159.026 25.0667 156.171 22.5137 156.171 19.1098Z" fill="#28293D"/>
<path id="Vector_9" d="M186.038 24.7373H173.63V5.35687H185.791V8.81569H177.556V13.4275H184.775V16.9412H177.556V21.2784H186.066V24.7373H186.038Z" fill="#28293D"/>
<path id="Vector_10" d="M204.266 24.7373H200.752L193.724 12.5765V24.7373H189.826V5.35687H193.45L200.367 17.3804V5.35687H204.266V24.7373Z" fill="#28293D"/>
<path id="Vector_11" d="M212.199 20.098L210.662 24.7373H206.489L213.709 5.35687H217.936L225.128 24.7373H221.011L219.446 20.098H212.199ZM215.795 9.41961L213.352 16.6941H218.266L215.795 9.41961Z" fill="#28293D"/>
<path id="Vector_12" d="M233.199 8.81569V24.7373H229.301V8.81569H223.948V5.35687H238.552V8.81569H233.199Z" fill="#28293D"/>
</g>
</g>
</g>
</svg>
