<svg width="63" height="41" viewBox="0 0 63 41" fill="none" xmlns="http://www.w3.org/2000/svg">
<path d="M28.1717 14.1831C28.1717 17.1231 27.934 19.7849 27.4585 22.1686C26.9038 24.5523 26.1113 26.7771 25.0811 28.843C23.9717 30.9089 22.6245 32.9351 21.0396 34.9215C19.4547 36.9079 17.6321 38.9341 15.5717 41L6.77547 36.8285C7.40944 36.1928 8.00377 35.438 8.55849 34.564C9.03396 33.8488 9.54906 32.9351 10.1038 31.8227C10.6585 30.7103 11.1736 29.4787 11.6491 28.1279C8.32076 27.4922 5.54717 25.8634 3.3283 23.2413C1.10944 20.6192 0 17.5998 0 14.1831C0 12.1967 0.396229 10.3295 1.18868 8.58139C1.90189 6.91279 2.89245 5.44283 4.16038 4.17151C5.4283 2.90019 6.93396 1.86725 8.67736 1.07267C10.3415 0.357559 12.1642 0 14.1453 0C16.0472 0 17.8698 0.357559 19.6132 1.07267C21.2774 1.86725 22.7434 2.90019 24.0113 4.17151C25.2792 5.44283 26.3094 6.91279 27.1019 8.58139C27.8151 10.3295 28.1717 12.1967 28.1717 14.1831ZM63 15.375C62.9208 18.0766 62.6038 20.5397 62.0491 22.7645C61.4943 25.0688 60.7019 27.2141 59.6717 29.2006C58.5623 31.2665 57.2547 33.2132 55.7491 35.0407C54.1642 36.9477 52.3811 38.9341 50.4 41L41.6038 36.8285C42.2377 36.1928 42.8321 35.438 43.3868 34.564C43.8623 33.8488 44.3774 32.9351 44.9321 31.8227C45.4868 30.7103 46.0019 29.4787 46.4774 28.1279C43.1491 27.4922 40.3755 25.8634 38.1566 23.2413C35.9377 20.6192 34.8283 17.5998 34.8283 14.1831C34.8283 12.1967 35.2245 10.3295 36.017 8.58139C36.7302 6.91279 37.7208 5.44283 38.9887 4.17151C40.2566 2.90019 41.7623 1.86725 43.5057 1.07267C45.1698 0.357559 46.9925 0 48.9736 0C50.8755 0 52.6981 0.357559 54.4415 1.07267C56.1057 1.86725 57.5717 2.93992 58.8396 4.2907C60.1075 5.64147 61.1377 7.23062 61.9302 9.05814C62.6434 10.9651 63 13.0707 63 15.375Z" fill="#EAEAEA"/>
</svg>
