<svg width="120" height="120" viewBox="0 0 120 120" fill="none" xmlns="http://www.w3.org/2000/svg">
<g id="Group 18675">
<g id="#e8f3ddff">
<path id="Vector" d="M53.46 0.362116C66.9123 -1.14504 80.8486 2.0875 92.2418 9.40506C104.099 16.9408 113.18 28.7594 117.299 42.2079C121.124 54.4152 120.871 67.8296 116.624 79.8936C112.24 92.5169 103.437 103.51 92.1736 110.678C73.2259 123.015 47.2555 123.117 28.2191 110.923C16.4509 103.599 7.34182 92.0737 3.03955 78.8843C-0.778634 67.4136 -1.01046 54.7903 2.40545 43.1968C6.46909 29.0186 16.0555 16.5385 28.635 8.85948C36.135 4.21526 44.6986 1.33734 53.46 0.362116ZM54.1077 5.78379C35.4054 7.64557 18.2373 19.9893 10.4918 37.1136C4.56682 49.8051 3.83045 64.8152 8.50772 78.025C12.0805 88.3296 18.8509 97.4885 27.6464 103.94C36.9191 110.821 48.4418 114.592 59.9918 114.579C71.0373 114.592 82.0691 111.155 91.1236 104.813C100.499 98.3342 107.733 88.8207 111.476 78.0523C115.683 66.1724 115.553 52.8194 111.121 41.0213C106.519 28.4593 97.0691 17.7729 85.1918 11.6283C75.7077 6.67717 64.7441 4.60398 54.1077 5.78379Z" fill="#E8F3DD"/>
</g>
<g id="#b2da8fff">
<path id="Vector_2" d="M89.9984 37.5364C92.4189 34.8017 97.4712 39.8346 94.7575 42.2829C81.0666 56.086 67.2598 69.7936 53.5348 83.5695C52.0825 85.0834 49.1439 85.6972 47.6984 83.8968C41.3439 77.534 35.0098 71.1508 28.6143 64.8357C27.7143 63.8946 26.4325 62.8853 26.9371 61.4054C27.5439 59.3663 30.4825 56.993 32.378 59.0048C38.4393 64.9721 44.3984 71.0485 50.4462 77.0294C63.6598 63.8946 76.7643 50.6507 89.9984 37.5364Z" fill="#B2DA8F"/>
</g>
</g>
</svg>
